G04 #@! TF.GenerationSoftware,KiCad,Pcbnew,5.1.6*
G04 #@! TF.CreationDate,2020-07-14T15:11:32-04:00*
G04 #@! TF.ProjectId,controller,636f6e74-726f-46c6-9c65-722e6b696361,rev?*
G04 #@! TF.SameCoordinates,Original*
G04 #@! TF.FileFunction,Legend,Bot*
G04 #@! TF.FilePolarity,Positive*
%FSLAX46Y46*%
G04 Gerber Fmt 4.6, Leading zero omitted, Abs format (unit mm)*
G04 Created by KiCad (PCBNEW 5.1.6) date 2020-07-14 15:11:32*
%MOMM*%
%LPD*%
G01*
G04 APERTURE LIST*
%ADD10C,0.200000*%
%ADD11C,0.300000*%
G04 APERTURE END LIST*
D10*
X127790952Y-70184285D02*
X127886190Y-70279523D01*
X128171904Y-70374761D01*
X128362380Y-70374761D01*
X128648095Y-70279523D01*
X128838571Y-70089047D01*
X128933809Y-69898571D01*
X129029047Y-69517619D01*
X129029047Y-69231904D01*
X128933809Y-68850952D01*
X128838571Y-68660476D01*
X128648095Y-68470000D01*
X128362380Y-68374761D01*
X128171904Y-68374761D01*
X127886190Y-68470000D01*
X127790952Y-68565238D01*
X126648095Y-70374761D02*
X126838571Y-70279523D01*
X126933809Y-70184285D01*
X127029047Y-69993809D01*
X127029047Y-69422380D01*
X126933809Y-69231904D01*
X126838571Y-69136666D01*
X126648095Y-69041428D01*
X126362380Y-69041428D01*
X126171904Y-69136666D01*
X126076666Y-69231904D01*
X125981428Y-69422380D01*
X125981428Y-69993809D01*
X126076666Y-70184285D01*
X126171904Y-70279523D01*
X126362380Y-70374761D01*
X126648095Y-70374761D01*
X125124285Y-69041428D02*
X125124285Y-70374761D01*
X125124285Y-69231904D02*
X125029047Y-69136666D01*
X124838571Y-69041428D01*
X124552857Y-69041428D01*
X124362380Y-69136666D01*
X124267142Y-69327142D01*
X124267142Y-70374761D01*
X123600476Y-69041428D02*
X122838571Y-69041428D01*
X123314761Y-68374761D02*
X123314761Y-70089047D01*
X123219523Y-70279523D01*
X123029047Y-70374761D01*
X122838571Y-70374761D01*
X122171904Y-70374761D02*
X122171904Y-69041428D01*
X122171904Y-69422380D02*
X122076666Y-69231904D01*
X121981428Y-69136666D01*
X121790952Y-69041428D01*
X121600476Y-69041428D01*
X120648095Y-70374761D02*
X120838571Y-70279523D01*
X120933809Y-70184285D01*
X121029047Y-69993809D01*
X121029047Y-69422380D01*
X120933809Y-69231904D01*
X120838571Y-69136666D01*
X120648095Y-69041428D01*
X120362380Y-69041428D01*
X120171904Y-69136666D01*
X120076666Y-69231904D01*
X119981428Y-69422380D01*
X119981428Y-69993809D01*
X120076666Y-70184285D01*
X120171904Y-70279523D01*
X120362380Y-70374761D01*
X120648095Y-70374761D01*
X118838571Y-70374761D02*
X119029047Y-70279523D01*
X119124285Y-70089047D01*
X119124285Y-68374761D01*
X117790952Y-70374761D02*
X117981428Y-70279523D01*
X118076666Y-70089047D01*
X118076666Y-68374761D01*
X116267142Y-70279523D02*
X116457619Y-70374761D01*
X116838571Y-70374761D01*
X117029047Y-70279523D01*
X117124285Y-70089047D01*
X117124285Y-69327142D01*
X117029047Y-69136666D01*
X116838571Y-69041428D01*
X116457619Y-69041428D01*
X116267142Y-69136666D01*
X116171904Y-69327142D01*
X116171904Y-69517619D01*
X117124285Y-69708095D01*
X115314761Y-70374761D02*
X115314761Y-69041428D01*
X115314761Y-69422380D02*
X115219523Y-69231904D01*
X115124285Y-69136666D01*
X114933809Y-69041428D01*
X114743333Y-69041428D01*
X112267142Y-70374761D02*
X112457619Y-70279523D01*
X112552857Y-70184285D01*
X112648095Y-69993809D01*
X112648095Y-69422380D01*
X112552857Y-69231904D01*
X112457619Y-69136666D01*
X112267142Y-69041428D01*
X111981428Y-69041428D01*
X111790952Y-69136666D01*
X111695714Y-69231904D01*
X111600476Y-69422380D01*
X111600476Y-69993809D01*
X111695714Y-70184285D01*
X111790952Y-70279523D01*
X111981428Y-70374761D01*
X112267142Y-70374761D01*
X109886190Y-69041428D02*
X109886190Y-70374761D01*
X110743333Y-69041428D02*
X110743333Y-70089047D01*
X110648095Y-70279523D01*
X110457619Y-70374761D01*
X110171904Y-70374761D01*
X109981428Y-70279523D01*
X109886190Y-70184285D01*
X109219523Y-69041428D02*
X108457619Y-69041428D01*
X108933809Y-68374761D02*
X108933809Y-70089047D01*
X108838571Y-70279523D01*
X108648095Y-70374761D01*
X108457619Y-70374761D01*
X124838571Y-73574761D02*
X125981428Y-73574761D01*
X125410000Y-73574761D02*
X125410000Y-71574761D01*
X125600476Y-71860476D01*
X125790952Y-72050952D01*
X125981428Y-72146190D01*
X123981428Y-73384285D02*
X123886190Y-73479523D01*
X123981428Y-73574761D01*
X124076666Y-73479523D01*
X123981428Y-73384285D01*
X123981428Y-73574761D01*
X121219523Y-73574761D02*
X121410000Y-73479523D01*
X121505238Y-73289047D01*
X121505238Y-71574761D01*
X119695714Y-73479523D02*
X119886190Y-73574761D01*
X120267142Y-73574761D01*
X120457619Y-73479523D01*
X120552857Y-73289047D01*
X120552857Y-72527142D01*
X120457619Y-72336666D01*
X120267142Y-72241428D01*
X119886190Y-72241428D01*
X119695714Y-72336666D01*
X119600476Y-72527142D01*
X119600476Y-72717619D01*
X120552857Y-72908095D01*
X119029047Y-72241428D02*
X118267142Y-72241428D01*
X118743333Y-73574761D02*
X118743333Y-71860476D01*
X118648095Y-71670000D01*
X118457619Y-71574761D01*
X118267142Y-71574761D01*
X117886190Y-72241428D02*
X117124285Y-72241428D01*
X117600476Y-71574761D02*
X117600476Y-73289047D01*
X117505238Y-73479523D01*
X117314761Y-73574761D01*
X117124285Y-73574761D01*
X114648095Y-73574761D02*
X114838571Y-73479523D01*
X114933809Y-73289047D01*
X114933809Y-71574761D01*
X113886190Y-73574761D02*
X113886190Y-72241428D01*
X113886190Y-71574761D02*
X113981428Y-71670000D01*
X113886190Y-71765238D01*
X113790952Y-71670000D01*
X113886190Y-71574761D01*
X113886190Y-71765238D01*
X112076666Y-73479523D02*
X112267142Y-73574761D01*
X112648095Y-73574761D01*
X112838571Y-73479523D01*
X112933809Y-73384285D01*
X113029047Y-73193809D01*
X113029047Y-72622380D01*
X112933809Y-72431904D01*
X112838571Y-72336666D01*
X112648095Y-72241428D01*
X112267142Y-72241428D01*
X112076666Y-72336666D01*
X111219523Y-73574761D02*
X111219523Y-71574761D01*
X111029047Y-72812857D02*
X110457619Y-73574761D01*
X110457619Y-72241428D02*
X111219523Y-73003333D01*
X125981428Y-74965238D02*
X125886190Y-74870000D01*
X125695714Y-74774761D01*
X125219523Y-74774761D01*
X125029047Y-74870000D01*
X124933809Y-74965238D01*
X124838571Y-75155714D01*
X124838571Y-75346190D01*
X124933809Y-75631904D01*
X126076666Y-76774761D01*
X124838571Y-76774761D01*
X123981428Y-76584285D02*
X123886190Y-76679523D01*
X123981428Y-76774761D01*
X124076666Y-76679523D01*
X123981428Y-76584285D01*
X123981428Y-76774761D01*
X121505238Y-76774761D02*
X121505238Y-75441428D01*
X121505238Y-75822380D02*
X121410000Y-75631904D01*
X121314761Y-75536666D01*
X121124285Y-75441428D01*
X120933809Y-75441428D01*
X120267142Y-76774761D02*
X120267142Y-75441428D01*
X120267142Y-74774761D02*
X120362380Y-74870000D01*
X120267142Y-74965238D01*
X120171904Y-74870000D01*
X120267142Y-74774761D01*
X120267142Y-74965238D01*
X118457619Y-75441428D02*
X118457619Y-77060476D01*
X118552857Y-77250952D01*
X118648095Y-77346190D01*
X118838571Y-77441428D01*
X119124285Y-77441428D01*
X119314761Y-77346190D01*
X118457619Y-76679523D02*
X118648095Y-76774761D01*
X119029047Y-76774761D01*
X119219523Y-76679523D01*
X119314761Y-76584285D01*
X119410000Y-76393809D01*
X119410000Y-75822380D01*
X119314761Y-75631904D01*
X119219523Y-75536666D01*
X119029047Y-75441428D01*
X118648095Y-75441428D01*
X118457619Y-75536666D01*
X117505238Y-76774761D02*
X117505238Y-74774761D01*
X116648095Y-76774761D02*
X116648095Y-75727142D01*
X116743333Y-75536666D01*
X116933809Y-75441428D01*
X117219523Y-75441428D01*
X117410000Y-75536666D01*
X117505238Y-75631904D01*
X115981428Y-75441428D02*
X115219523Y-75441428D01*
X115695714Y-74774761D02*
X115695714Y-76489047D01*
X115600476Y-76679523D01*
X115410000Y-76774761D01*
X115219523Y-76774761D01*
X112743333Y-76774761D02*
X112933809Y-76679523D01*
X113029047Y-76489047D01*
X113029047Y-74774761D01*
X111981428Y-76774761D02*
X111981428Y-75441428D01*
X111981428Y-74774761D02*
X112076666Y-74870000D01*
X111981428Y-74965238D01*
X111886190Y-74870000D01*
X111981428Y-74774761D01*
X111981428Y-74965238D01*
X110171904Y-76679523D02*
X110362380Y-76774761D01*
X110743333Y-76774761D01*
X110933809Y-76679523D01*
X111029047Y-76584285D01*
X111124285Y-76393809D01*
X111124285Y-75822380D01*
X111029047Y-75631904D01*
X110933809Y-75536666D01*
X110743333Y-75441428D01*
X110362380Y-75441428D01*
X110171904Y-75536666D01*
X109314761Y-76774761D02*
X109314761Y-74774761D01*
X109124285Y-76012857D02*
X108552857Y-76774761D01*
X108552857Y-75441428D02*
X109314761Y-76203333D01*
X126076666Y-77974761D02*
X124838571Y-77974761D01*
X125505238Y-78736666D01*
X125219523Y-78736666D01*
X125029047Y-78831904D01*
X124933809Y-78927142D01*
X124838571Y-79117619D01*
X124838571Y-79593809D01*
X124933809Y-79784285D01*
X125029047Y-79879523D01*
X125219523Y-79974761D01*
X125790952Y-79974761D01*
X125981428Y-79879523D01*
X126076666Y-79784285D01*
X123981428Y-79784285D02*
X123886190Y-79879523D01*
X123981428Y-79974761D01*
X124076666Y-79879523D01*
X123981428Y-79784285D01*
X123981428Y-79974761D01*
X121600476Y-79879523D02*
X121410000Y-79974761D01*
X121029047Y-79974761D01*
X120838571Y-79879523D01*
X120743333Y-79689047D01*
X120743333Y-79593809D01*
X120838571Y-79403333D01*
X121029047Y-79308095D01*
X121314761Y-79308095D01*
X121505238Y-79212857D01*
X121600476Y-79022380D01*
X121600476Y-78927142D01*
X121505238Y-78736666D01*
X121314761Y-78641428D01*
X121029047Y-78641428D01*
X120838571Y-78736666D01*
X120171904Y-78641428D02*
X119410000Y-78641428D01*
X119886190Y-77974761D02*
X119886190Y-79689047D01*
X119790952Y-79879523D01*
X119600476Y-79974761D01*
X119410000Y-79974761D01*
X118743333Y-79974761D02*
X118743333Y-78641428D01*
X118743333Y-77974761D02*
X118838571Y-78070000D01*
X118743333Y-78165238D01*
X118648095Y-78070000D01*
X118743333Y-77974761D01*
X118743333Y-78165238D01*
X117790952Y-79974761D02*
X117790952Y-78641428D01*
X117790952Y-78831904D02*
X117695714Y-78736666D01*
X117505238Y-78641428D01*
X117219523Y-78641428D01*
X117029047Y-78736666D01*
X116933809Y-78927142D01*
X116933809Y-79974761D01*
X116933809Y-78927142D02*
X116838571Y-78736666D01*
X116648095Y-78641428D01*
X116362380Y-78641428D01*
X116171904Y-78736666D01*
X116076666Y-78927142D01*
X116076666Y-79974761D01*
X113219523Y-77974761D02*
X112838571Y-77974761D01*
X112648095Y-78070000D01*
X112457619Y-78260476D01*
X112362380Y-78641428D01*
X112362380Y-79308095D01*
X112457619Y-79689047D01*
X112648095Y-79879523D01*
X112838571Y-79974761D01*
X113219523Y-79974761D01*
X113410000Y-79879523D01*
X113600476Y-79689047D01*
X113695714Y-79308095D01*
X113695714Y-78641428D01*
X113600476Y-78260476D01*
X113410000Y-78070000D01*
X113219523Y-77974761D01*
X111505238Y-79974761D02*
X111505238Y-77974761D01*
X110362380Y-79974761D01*
X110362380Y-77974761D01*
X125029047Y-81841428D02*
X125029047Y-83174761D01*
X125505238Y-81079523D02*
X125981428Y-82508095D01*
X124743333Y-82508095D01*
X123981428Y-82984285D02*
X123886190Y-83079523D01*
X123981428Y-83174761D01*
X124076666Y-83079523D01*
X123981428Y-82984285D01*
X123981428Y-83174761D01*
X121790952Y-81841428D02*
X121029047Y-81841428D01*
X121505238Y-81174761D02*
X121505238Y-82889047D01*
X121410000Y-83079523D01*
X121219523Y-83174761D01*
X121029047Y-83174761D01*
X120362380Y-83174761D02*
X120362380Y-81841428D01*
X120362380Y-82222380D02*
X120267142Y-82031904D01*
X120171904Y-81936666D01*
X119981428Y-81841428D01*
X119790952Y-81841428D01*
X119124285Y-83174761D02*
X119124285Y-81841428D01*
X119124285Y-81174761D02*
X119219523Y-81270000D01*
X119124285Y-81365238D01*
X119029047Y-81270000D01*
X119124285Y-81174761D01*
X119124285Y-81365238D01*
X117314761Y-83174761D02*
X117314761Y-82127142D01*
X117410000Y-81936666D01*
X117600476Y-81841428D01*
X117981428Y-81841428D01*
X118171904Y-81936666D01*
X117314761Y-83079523D02*
X117505238Y-83174761D01*
X117981428Y-83174761D01*
X118171904Y-83079523D01*
X118267142Y-82889047D01*
X118267142Y-82698571D01*
X118171904Y-82508095D01*
X117981428Y-82412857D01*
X117505238Y-82412857D01*
X117314761Y-82317619D01*
X116076666Y-83174761D02*
X116267142Y-83079523D01*
X116362380Y-82889047D01*
X116362380Y-81174761D01*
X113410000Y-81174761D02*
X113029047Y-81174761D01*
X112838571Y-81270000D01*
X112648095Y-81460476D01*
X112552857Y-81841428D01*
X112552857Y-82508095D01*
X112648095Y-82889047D01*
X112838571Y-83079523D01*
X113029047Y-83174761D01*
X113410000Y-83174761D01*
X113600476Y-83079523D01*
X113790952Y-82889047D01*
X113886190Y-82508095D01*
X113886190Y-81841428D01*
X113790952Y-81460476D01*
X113600476Y-81270000D01*
X113410000Y-81174761D01*
X111695714Y-83174761D02*
X111695714Y-81174761D01*
X110552857Y-83174761D01*
X110552857Y-81174761D01*
X124933809Y-84374761D02*
X125886190Y-84374761D01*
X125981428Y-85327142D01*
X125886190Y-85231904D01*
X125695714Y-85136666D01*
X125219523Y-85136666D01*
X125029047Y-85231904D01*
X124933809Y-85327142D01*
X124838571Y-85517619D01*
X124838571Y-85993809D01*
X124933809Y-86184285D01*
X125029047Y-86279523D01*
X125219523Y-86374761D01*
X125695714Y-86374761D01*
X125886190Y-86279523D01*
X125981428Y-86184285D01*
X123981428Y-86184285D02*
X123886190Y-86279523D01*
X123981428Y-86374761D01*
X124076666Y-86279523D01*
X123981428Y-86184285D01*
X123981428Y-86374761D01*
X120743333Y-86279523D02*
X120933809Y-86374761D01*
X121314761Y-86374761D01*
X121505238Y-86279523D01*
X121600476Y-86089047D01*
X121600476Y-85327142D01*
X121505238Y-85136666D01*
X121314761Y-85041428D01*
X120933809Y-85041428D01*
X120743333Y-85136666D01*
X120648095Y-85327142D01*
X120648095Y-85517619D01*
X121600476Y-85708095D01*
X119981428Y-86374761D02*
X118933809Y-85041428D01*
X119981428Y-85041428D02*
X118933809Y-86374761D01*
X118171904Y-85041428D02*
X118171904Y-87041428D01*
X118171904Y-85136666D02*
X117981428Y-85041428D01*
X117600476Y-85041428D01*
X117410000Y-85136666D01*
X117314761Y-85231904D01*
X117219523Y-85422380D01*
X117219523Y-85993809D01*
X117314761Y-86184285D01*
X117410000Y-86279523D01*
X117600476Y-86374761D01*
X117981428Y-86374761D01*
X118171904Y-86279523D01*
X116076666Y-86374761D02*
X116267142Y-86279523D01*
X116362380Y-86184285D01*
X116457619Y-85993809D01*
X116457619Y-85422380D01*
X116362380Y-85231904D01*
X116267142Y-85136666D01*
X116076666Y-85041428D01*
X115790952Y-85041428D01*
X115600476Y-85136666D01*
X115505238Y-85231904D01*
X115410000Y-85422380D01*
X115410000Y-85993809D01*
X115505238Y-86184285D01*
X115600476Y-86279523D01*
X115790952Y-86374761D01*
X116076666Y-86374761D01*
X114648095Y-86279523D02*
X114457619Y-86374761D01*
X114076666Y-86374761D01*
X113886190Y-86279523D01*
X113790952Y-86089047D01*
X113790952Y-85993809D01*
X113886190Y-85803333D01*
X114076666Y-85708095D01*
X114362380Y-85708095D01*
X114552857Y-85612857D01*
X114648095Y-85422380D01*
X114648095Y-85327142D01*
X114552857Y-85136666D01*
X114362380Y-85041428D01*
X114076666Y-85041428D01*
X113886190Y-85136666D01*
X112076666Y-85041428D02*
X112076666Y-86374761D01*
X112933809Y-85041428D02*
X112933809Y-86089047D01*
X112838571Y-86279523D01*
X112648095Y-86374761D01*
X112362380Y-86374761D01*
X112171904Y-86279523D01*
X112076666Y-86184285D01*
X111124285Y-86374761D02*
X111124285Y-85041428D01*
X111124285Y-85422380D02*
X111029047Y-85231904D01*
X110933809Y-85136666D01*
X110743333Y-85041428D01*
X110552857Y-85041428D01*
X109124285Y-86279523D02*
X109314761Y-86374761D01*
X109695714Y-86374761D01*
X109886190Y-86279523D01*
X109981428Y-86089047D01*
X109981428Y-85327142D01*
X109886190Y-85136666D01*
X109695714Y-85041428D01*
X109314761Y-85041428D01*
X109124285Y-85136666D01*
X109029047Y-85327142D01*
X109029047Y-85517619D01*
X109981428Y-85708095D01*
X106933809Y-85041428D02*
X106171904Y-85041428D01*
X106648095Y-84374761D02*
X106648095Y-86089047D01*
X106552857Y-86279523D01*
X106362380Y-86374761D01*
X106171904Y-86374761D01*
X105505238Y-86374761D02*
X105505238Y-85041428D01*
X105505238Y-85422380D02*
X105410000Y-85231904D01*
X105314761Y-85136666D01*
X105124285Y-85041428D01*
X104933809Y-85041428D01*
X104267142Y-86374761D02*
X104267142Y-85041428D01*
X104267142Y-84374761D02*
X104362380Y-84470000D01*
X104267142Y-84565238D01*
X104171904Y-84470000D01*
X104267142Y-84374761D01*
X104267142Y-84565238D01*
X102457619Y-85041428D02*
X102457619Y-86660476D01*
X102552857Y-86850952D01*
X102648095Y-86946190D01*
X102838571Y-87041428D01*
X103124285Y-87041428D01*
X103314761Y-86946190D01*
X102457619Y-86279523D02*
X102648095Y-86374761D01*
X103029047Y-86374761D01*
X103219523Y-86279523D01*
X103314761Y-86184285D01*
X103410000Y-85993809D01*
X103410000Y-85422380D01*
X103314761Y-85231904D01*
X103219523Y-85136666D01*
X103029047Y-85041428D01*
X102648095Y-85041428D01*
X102457619Y-85136666D01*
X100648095Y-85041428D02*
X100648095Y-86660476D01*
X100743333Y-86850952D01*
X100838571Y-86946190D01*
X101029047Y-87041428D01*
X101314761Y-87041428D01*
X101505238Y-86946190D01*
X100648095Y-86279523D02*
X100838571Y-86374761D01*
X101219523Y-86374761D01*
X101410000Y-86279523D01*
X101505238Y-86184285D01*
X101600476Y-85993809D01*
X101600476Y-85422380D01*
X101505238Y-85231904D01*
X101410000Y-85136666D01*
X101219523Y-85041428D01*
X100838571Y-85041428D01*
X100648095Y-85136666D01*
X98933809Y-86279523D02*
X99124285Y-86374761D01*
X99505238Y-86374761D01*
X99695714Y-86279523D01*
X99790952Y-86089047D01*
X99790952Y-85327142D01*
X99695714Y-85136666D01*
X99505238Y-85041428D01*
X99124285Y-85041428D01*
X98933809Y-85136666D01*
X98838571Y-85327142D01*
X98838571Y-85517619D01*
X99790952Y-85708095D01*
X97981428Y-86374761D02*
X97981428Y-85041428D01*
X97981428Y-85422380D02*
X97886190Y-85231904D01*
X97790952Y-85136666D01*
X97600476Y-85041428D01*
X97410000Y-85041428D01*
D11*
X59114047Y-68509523D02*
X58828333Y-68604761D01*
X58352142Y-68604761D01*
X58161666Y-68509523D01*
X58066428Y-68414285D01*
X57971190Y-68223809D01*
X57971190Y-68033333D01*
X58066428Y-67842857D01*
X58161666Y-67747619D01*
X58352142Y-67652380D01*
X58733095Y-67557142D01*
X58923571Y-67461904D01*
X59018809Y-67366666D01*
X59114047Y-67176190D01*
X59114047Y-66985714D01*
X59018809Y-66795238D01*
X58923571Y-66700000D01*
X58733095Y-66604761D01*
X58256904Y-66604761D01*
X57971190Y-66700000D01*
X57114047Y-68604761D02*
X57114047Y-66604761D01*
X56352142Y-66604761D01*
X56161666Y-66700000D01*
X56066428Y-66795238D01*
X55971190Y-66985714D01*
X55971190Y-67271428D01*
X56066428Y-67461904D01*
X56161666Y-67557142D01*
X56352142Y-67652380D01*
X57114047Y-67652380D01*
X54733095Y-66604761D02*
X54352142Y-66604761D01*
X54161666Y-66700000D01*
X53971190Y-66890476D01*
X53875952Y-67271428D01*
X53875952Y-67938095D01*
X53971190Y-68319047D01*
X54161666Y-68509523D01*
X54352142Y-68604761D01*
X54733095Y-68604761D01*
X54923571Y-68509523D01*
X55114047Y-68319047D01*
X55209285Y-67938095D01*
X55209285Y-67271428D01*
X55114047Y-66890476D01*
X54923571Y-66700000D01*
X54733095Y-66604761D01*
X53018809Y-66604761D02*
X53018809Y-68223809D01*
X52923571Y-68414285D01*
X52828333Y-68509523D01*
X52637857Y-68604761D01*
X52256904Y-68604761D01*
X52066428Y-68509523D01*
X51971190Y-68414285D01*
X51875952Y-68223809D01*
X51875952Y-66604761D01*
X51209285Y-66604761D02*
X50066428Y-66604761D01*
X50637857Y-68604761D02*
X50637857Y-66604761D01*
X47971190Y-68509523D02*
X47685476Y-68604761D01*
X47209285Y-68604761D01*
X47018809Y-68509523D01*
X46923571Y-68414285D01*
X46828333Y-68223809D01*
X46828333Y-68033333D01*
X46923571Y-67842857D01*
X47018809Y-67747619D01*
X47209285Y-67652380D01*
X47590238Y-67557142D01*
X47780714Y-67461904D01*
X47875952Y-67366666D01*
X47971190Y-67176190D01*
X47971190Y-66985714D01*
X47875952Y-66795238D01*
X47780714Y-66700000D01*
X47590238Y-66604761D01*
X47114047Y-66604761D01*
X46828333Y-66700000D01*
X46256904Y-66604761D02*
X45114047Y-66604761D01*
X45685476Y-68604761D02*
X45685476Y-66604761D01*
X44447380Y-68604761D02*
X44447380Y-66604761D01*
X43495000Y-68604761D02*
X43495000Y-66604761D01*
X42828333Y-68033333D01*
X42161666Y-66604761D01*
X42161666Y-68604761D01*
X51875952Y-71904761D02*
X53018809Y-71904761D01*
X52447380Y-71904761D02*
X52447380Y-69904761D01*
X52637857Y-70190476D01*
X52828333Y-70380952D01*
X53018809Y-70476190D01*
X51018809Y-71714285D02*
X50923571Y-71809523D01*
X51018809Y-71904761D01*
X51114047Y-71809523D01*
X51018809Y-71714285D01*
X51018809Y-71904761D01*
X48637857Y-71809523D02*
X48447380Y-71904761D01*
X48066428Y-71904761D01*
X47875952Y-71809523D01*
X47780714Y-71619047D01*
X47780714Y-71523809D01*
X47875952Y-71333333D01*
X48066428Y-71238095D01*
X48352142Y-71238095D01*
X48542619Y-71142857D01*
X48637857Y-70952380D01*
X48637857Y-70857142D01*
X48542619Y-70666666D01*
X48352142Y-70571428D01*
X48066428Y-70571428D01*
X47875952Y-70666666D01*
X46923571Y-70571428D02*
X46923571Y-72571428D01*
X46923571Y-70666666D02*
X46733095Y-70571428D01*
X46352142Y-70571428D01*
X46161666Y-70666666D01*
X46066428Y-70761904D01*
X45971190Y-70952380D01*
X45971190Y-71523809D01*
X46066428Y-71714285D01*
X46161666Y-71809523D01*
X46352142Y-71904761D01*
X46733095Y-71904761D01*
X46923571Y-71809523D01*
X44828333Y-71904761D02*
X45018809Y-71809523D01*
X45114047Y-71714285D01*
X45209285Y-71523809D01*
X45209285Y-70952380D01*
X45114047Y-70761904D01*
X45018809Y-70666666D01*
X44828333Y-70571428D01*
X44542619Y-70571428D01*
X44352142Y-70666666D01*
X44256904Y-70761904D01*
X44161666Y-70952380D01*
X44161666Y-71523809D01*
X44256904Y-71714285D01*
X44352142Y-71809523D01*
X44542619Y-71904761D01*
X44828333Y-71904761D01*
X42447380Y-70571428D02*
X42447380Y-71904761D01*
X43304523Y-70571428D02*
X43304523Y-71619047D01*
X43209285Y-71809523D01*
X43018809Y-71904761D01*
X42733095Y-71904761D01*
X42542619Y-71809523D01*
X42447380Y-71714285D01*
X41780714Y-70571428D02*
X41018809Y-70571428D01*
X41495000Y-69904761D02*
X41495000Y-71619047D01*
X41399761Y-71809523D01*
X41209285Y-71904761D01*
X41018809Y-71904761D01*
X38542619Y-71904761D02*
X38733095Y-71809523D01*
X38828333Y-71619047D01*
X38828333Y-69904761D01*
X37780714Y-71904761D02*
X37780714Y-70571428D01*
X37780714Y-69904761D02*
X37875952Y-70000000D01*
X37780714Y-70095238D01*
X37685476Y-70000000D01*
X37780714Y-69904761D01*
X37780714Y-70095238D01*
X35971190Y-71809523D02*
X36161666Y-71904761D01*
X36542619Y-71904761D01*
X36733095Y-71809523D01*
X36828333Y-71714285D01*
X36923571Y-71523809D01*
X36923571Y-70952380D01*
X36828333Y-70761904D01*
X36733095Y-70666666D01*
X36542619Y-70571428D01*
X36161666Y-70571428D01*
X35971190Y-70666666D01*
X35114047Y-71904761D02*
X35114047Y-69904761D01*
X34923571Y-71142857D02*
X34352142Y-71904761D01*
X34352142Y-70571428D02*
X35114047Y-71333333D01*
X53018809Y-73395238D02*
X52923571Y-73300000D01*
X52733095Y-73204761D01*
X52256904Y-73204761D01*
X52066428Y-73300000D01*
X51971190Y-73395238D01*
X51875952Y-73585714D01*
X51875952Y-73776190D01*
X51971190Y-74061904D01*
X53114047Y-75204761D01*
X51875952Y-75204761D01*
X51018809Y-75014285D02*
X50923571Y-75109523D01*
X51018809Y-75204761D01*
X51114047Y-75109523D01*
X51018809Y-75014285D01*
X51018809Y-75204761D01*
X47685476Y-75204761D02*
X47685476Y-74157142D01*
X47780714Y-73966666D01*
X47971190Y-73871428D01*
X48352142Y-73871428D01*
X48542619Y-73966666D01*
X47685476Y-75109523D02*
X47875952Y-75204761D01*
X48352142Y-75204761D01*
X48542619Y-75109523D01*
X48637857Y-74919047D01*
X48637857Y-74728571D01*
X48542619Y-74538095D01*
X48352142Y-74442857D01*
X47875952Y-74442857D01*
X47685476Y-74347619D01*
X45875952Y-73871428D02*
X45875952Y-75204761D01*
X46733095Y-73871428D02*
X46733095Y-74919047D01*
X46637857Y-75109523D01*
X46447380Y-75204761D01*
X46161666Y-75204761D01*
X45971190Y-75109523D01*
X45875952Y-75014285D01*
X44066428Y-75204761D02*
X44066428Y-73204761D01*
X44066428Y-75109523D02*
X44256904Y-75204761D01*
X44637857Y-75204761D01*
X44828333Y-75109523D01*
X44923571Y-75014285D01*
X45018809Y-74823809D01*
X45018809Y-74252380D01*
X44923571Y-74061904D01*
X44828333Y-73966666D01*
X44637857Y-73871428D01*
X44256904Y-73871428D01*
X44066428Y-73966666D01*
X43114047Y-75204761D02*
X43114047Y-73871428D01*
X43114047Y-73204761D02*
X43209285Y-73300000D01*
X43114047Y-73395238D01*
X43018809Y-73300000D01*
X43114047Y-73204761D01*
X43114047Y-73395238D01*
X41875952Y-75204761D02*
X42066428Y-75109523D01*
X42161666Y-75014285D01*
X42256904Y-74823809D01*
X42256904Y-74252380D01*
X42161666Y-74061904D01*
X42066428Y-73966666D01*
X41875952Y-73871428D01*
X41590238Y-73871428D01*
X41399761Y-73966666D01*
X41304523Y-74061904D01*
X41209285Y-74252380D01*
X41209285Y-74823809D01*
X41304523Y-75014285D01*
X41399761Y-75109523D01*
X41590238Y-75204761D01*
X41875952Y-75204761D01*
X38828333Y-74442857D02*
X37304523Y-74442857D01*
X38066428Y-75204761D02*
X38066428Y-73680952D01*
X53114047Y-86404761D02*
X51875952Y-86404761D01*
X52542619Y-87166666D01*
X52256904Y-87166666D01*
X52066428Y-87261904D01*
X51971190Y-87357142D01*
X51875952Y-87547619D01*
X51875952Y-88023809D01*
X51971190Y-88214285D01*
X52066428Y-88309523D01*
X52256904Y-88404761D01*
X52828333Y-88404761D01*
X53018809Y-88309523D01*
X53114047Y-88214285D01*
X51018809Y-88214285D02*
X50923571Y-88309523D01*
X51018809Y-88404761D01*
X51114047Y-88309523D01*
X51018809Y-88214285D01*
X51018809Y-88404761D01*
X47685476Y-88404761D02*
X47685476Y-87357142D01*
X47780714Y-87166666D01*
X47971190Y-87071428D01*
X48352142Y-87071428D01*
X48542619Y-87166666D01*
X47685476Y-88309523D02*
X47875952Y-88404761D01*
X48352142Y-88404761D01*
X48542619Y-88309523D01*
X48637857Y-88119047D01*
X48637857Y-87928571D01*
X48542619Y-87738095D01*
X48352142Y-87642857D01*
X47875952Y-87642857D01*
X47685476Y-87547619D01*
X45875952Y-87071428D02*
X45875952Y-88404761D01*
X46733095Y-87071428D02*
X46733095Y-88119047D01*
X46637857Y-88309523D01*
X46447380Y-88404761D01*
X46161666Y-88404761D01*
X45971190Y-88309523D01*
X45875952Y-88214285D01*
X44066428Y-88404761D02*
X44066428Y-86404761D01*
X44066428Y-88309523D02*
X44256904Y-88404761D01*
X44637857Y-88404761D01*
X44828333Y-88309523D01*
X44923571Y-88214285D01*
X45018809Y-88023809D01*
X45018809Y-87452380D01*
X44923571Y-87261904D01*
X44828333Y-87166666D01*
X44637857Y-87071428D01*
X44256904Y-87071428D01*
X44066428Y-87166666D01*
X43114047Y-88404761D02*
X43114047Y-87071428D01*
X43114047Y-86404761D02*
X43209285Y-86500000D01*
X43114047Y-86595238D01*
X43018809Y-86500000D01*
X43114047Y-86404761D01*
X43114047Y-86595238D01*
X41875952Y-88404761D02*
X42066428Y-88309523D01*
X42161666Y-88214285D01*
X42256904Y-88023809D01*
X42256904Y-87452380D01*
X42161666Y-87261904D01*
X42066428Y-87166666D01*
X41875952Y-87071428D01*
X41590238Y-87071428D01*
X41399761Y-87166666D01*
X41304523Y-87261904D01*
X41209285Y-87452380D01*
X41209285Y-88023809D01*
X41304523Y-88214285D01*
X41399761Y-88309523D01*
X41590238Y-88404761D01*
X41875952Y-88404761D01*
X38828333Y-87642857D02*
X37304523Y-87642857D01*
X52066428Y-90371428D02*
X52066428Y-91704761D01*
X52542619Y-89609523D02*
X53018809Y-91038095D01*
X51780714Y-91038095D01*
X51018809Y-91514285D02*
X50923571Y-91609523D01*
X51018809Y-91704761D01*
X51114047Y-91609523D01*
X51018809Y-91514285D01*
X51018809Y-91704761D01*
X48542619Y-91704761D02*
X48542619Y-90371428D01*
X48542619Y-90561904D02*
X48447380Y-90466666D01*
X48256904Y-90371428D01*
X47971190Y-90371428D01*
X47780714Y-90466666D01*
X47685476Y-90657142D01*
X47685476Y-91704761D01*
X47685476Y-90657142D02*
X47590238Y-90466666D01*
X47399761Y-90371428D01*
X47114047Y-90371428D01*
X46923571Y-90466666D01*
X46828333Y-90657142D01*
X46828333Y-91704761D01*
X45590238Y-91704761D02*
X45780714Y-91609523D01*
X45875952Y-91514285D01*
X45971190Y-91323809D01*
X45971190Y-90752380D01*
X45875952Y-90561904D01*
X45780714Y-90466666D01*
X45590238Y-90371428D01*
X45304523Y-90371428D01*
X45114047Y-90466666D01*
X45018809Y-90561904D01*
X44923571Y-90752380D01*
X44923571Y-91323809D01*
X45018809Y-91514285D01*
X45114047Y-91609523D01*
X45304523Y-91704761D01*
X45590238Y-91704761D01*
X44352142Y-90371428D02*
X43590238Y-90371428D01*
X44066428Y-89704761D02*
X44066428Y-91419047D01*
X43971190Y-91609523D01*
X43780714Y-91704761D01*
X43590238Y-91704761D01*
X42637857Y-91704761D02*
X42828333Y-91609523D01*
X42923571Y-91514285D01*
X43018809Y-91323809D01*
X43018809Y-90752380D01*
X42923571Y-90561904D01*
X42828333Y-90466666D01*
X42637857Y-90371428D01*
X42352142Y-90371428D01*
X42161666Y-90466666D01*
X42066428Y-90561904D01*
X41971190Y-90752380D01*
X41971190Y-91323809D01*
X42066428Y-91514285D01*
X42161666Y-91609523D01*
X42352142Y-91704761D01*
X42637857Y-91704761D01*
X41114047Y-91704761D02*
X41114047Y-90371428D01*
X41114047Y-90752380D02*
X41018809Y-90561904D01*
X40923571Y-90466666D01*
X40733095Y-90371428D01*
X40542619Y-90371428D01*
X38542619Y-90371428D02*
X37495000Y-90371428D01*
X38542619Y-91704761D01*
X37495000Y-91704761D01*
X35971190Y-91609523D02*
X36161666Y-91704761D01*
X36542619Y-91704761D01*
X36733095Y-91609523D01*
X36828333Y-91419047D01*
X36828333Y-90657142D01*
X36733095Y-90466666D01*
X36542619Y-90371428D01*
X36161666Y-90371428D01*
X35971190Y-90466666D01*
X35875952Y-90657142D01*
X35875952Y-90847619D01*
X36828333Y-91038095D01*
X35018809Y-91704761D02*
X35018809Y-90371428D01*
X35018809Y-90752380D02*
X34923571Y-90561904D01*
X34828333Y-90466666D01*
X34637857Y-90371428D01*
X34447380Y-90371428D01*
X33495000Y-91704761D02*
X33685476Y-91609523D01*
X33780714Y-91514285D01*
X33875952Y-91323809D01*
X33875952Y-90752380D01*
X33780714Y-90561904D01*
X33685476Y-90466666D01*
X33495000Y-90371428D01*
X33209285Y-90371428D01*
X33018809Y-90466666D01*
X32923571Y-90561904D01*
X32828333Y-90752380D01*
X32828333Y-91323809D01*
X32923571Y-91514285D01*
X33018809Y-91609523D01*
X33209285Y-91704761D01*
X33495000Y-91704761D01*
X51971190Y-93004761D02*
X52923571Y-93004761D01*
X53018809Y-93957142D01*
X52923571Y-93861904D01*
X52733095Y-93766666D01*
X52256904Y-93766666D01*
X52066428Y-93861904D01*
X51971190Y-93957142D01*
X51875952Y-94147619D01*
X51875952Y-94623809D01*
X51971190Y-94814285D01*
X52066428Y-94909523D01*
X52256904Y-95004761D01*
X52733095Y-95004761D01*
X52923571Y-94909523D01*
X53018809Y-94814285D01*
X51018809Y-94814285D02*
X50923571Y-94909523D01*
X51018809Y-95004761D01*
X51114047Y-94909523D01*
X51018809Y-94814285D01*
X51018809Y-95004761D01*
X47685476Y-93671428D02*
X47685476Y-95290476D01*
X47780714Y-95480952D01*
X47875952Y-95576190D01*
X48066428Y-95671428D01*
X48352142Y-95671428D01*
X48542619Y-95576190D01*
X47685476Y-94909523D02*
X47875952Y-95004761D01*
X48256904Y-95004761D01*
X48447380Y-94909523D01*
X48542619Y-94814285D01*
X48637857Y-94623809D01*
X48637857Y-94052380D01*
X48542619Y-93861904D01*
X48447380Y-93766666D01*
X48256904Y-93671428D01*
X47875952Y-93671428D01*
X47685476Y-93766666D01*
X46733095Y-95004761D02*
X46733095Y-93671428D01*
X46733095Y-94052380D02*
X46637857Y-93861904D01*
X46542619Y-93766666D01*
X46352142Y-93671428D01*
X46161666Y-93671428D01*
X45209285Y-95004761D02*
X45399761Y-94909523D01*
X45495000Y-94814285D01*
X45590238Y-94623809D01*
X45590238Y-94052380D01*
X45495000Y-93861904D01*
X45399761Y-93766666D01*
X45209285Y-93671428D01*
X44923571Y-93671428D01*
X44733095Y-93766666D01*
X44637857Y-93861904D01*
X44542619Y-94052380D01*
X44542619Y-94623809D01*
X44637857Y-94814285D01*
X44733095Y-94909523D01*
X44923571Y-95004761D01*
X45209285Y-95004761D01*
X42828333Y-93671428D02*
X42828333Y-95004761D01*
X43685476Y-93671428D02*
X43685476Y-94719047D01*
X43590238Y-94909523D01*
X43399761Y-95004761D01*
X43114047Y-95004761D01*
X42923571Y-94909523D01*
X42828333Y-94814285D01*
X41875952Y-93671428D02*
X41875952Y-95004761D01*
X41875952Y-93861904D02*
X41780714Y-93766666D01*
X41590238Y-93671428D01*
X41304523Y-93671428D01*
X41114047Y-93766666D01*
X41018809Y-93957142D01*
X41018809Y-95004761D01*
X39209285Y-95004761D02*
X39209285Y-93004761D01*
X39209285Y-94909523D02*
X39399761Y-95004761D01*
X39780714Y-95004761D01*
X39971190Y-94909523D01*
X40066428Y-94814285D01*
X40161666Y-94623809D01*
X40161666Y-94052380D01*
X40066428Y-93861904D01*
X39971190Y-93766666D01*
X39780714Y-93671428D01*
X39399761Y-93671428D01*
X39209285Y-93766666D01*
X52066428Y-96304761D02*
X52447380Y-96304761D01*
X52637857Y-96400000D01*
X52733095Y-96495238D01*
X52923571Y-96780952D01*
X53018809Y-97161904D01*
X53018809Y-97923809D01*
X52923571Y-98114285D01*
X52828333Y-98209523D01*
X52637857Y-98304761D01*
X52256904Y-98304761D01*
X52066428Y-98209523D01*
X51971190Y-98114285D01*
X51875952Y-97923809D01*
X51875952Y-97447619D01*
X51971190Y-97257142D01*
X52066428Y-97161904D01*
X52256904Y-97066666D01*
X52637857Y-97066666D01*
X52828333Y-97161904D01*
X52923571Y-97257142D01*
X53018809Y-97447619D01*
X51018809Y-98114285D02*
X50923571Y-98209523D01*
X51018809Y-98304761D01*
X51114047Y-98209523D01*
X51018809Y-98114285D01*
X51018809Y-98304761D01*
X48733095Y-96971428D02*
X48256904Y-98304761D01*
X47780714Y-96971428D01*
X47018809Y-98304761D02*
X47018809Y-96971428D01*
X47018809Y-96304761D02*
X47114047Y-96400000D01*
X47018809Y-96495238D01*
X46923571Y-96400000D01*
X47018809Y-96304761D01*
X47018809Y-96495238D01*
X46161666Y-98209523D02*
X45971190Y-98304761D01*
X45590238Y-98304761D01*
X45399761Y-98209523D01*
X45304523Y-98019047D01*
X45304523Y-97923809D01*
X45399761Y-97733333D01*
X45590238Y-97638095D01*
X45875952Y-97638095D01*
X46066428Y-97542857D01*
X46161666Y-97352380D01*
X46161666Y-97257142D01*
X46066428Y-97066666D01*
X45875952Y-96971428D01*
X45590238Y-96971428D01*
X45399761Y-97066666D01*
X43590238Y-96971428D02*
X43590238Y-98304761D01*
X44447380Y-96971428D02*
X44447380Y-98019047D01*
X44352142Y-98209523D01*
X44161666Y-98304761D01*
X43875952Y-98304761D01*
X43685476Y-98209523D01*
X43590238Y-98114285D01*
X41780714Y-98304761D02*
X41780714Y-97257142D01*
X41875952Y-97066666D01*
X42066428Y-96971428D01*
X42447380Y-96971428D01*
X42637857Y-97066666D01*
X41780714Y-98209523D02*
X41971190Y-98304761D01*
X42447380Y-98304761D01*
X42637857Y-98209523D01*
X42733095Y-98019047D01*
X42733095Y-97828571D01*
X42637857Y-97638095D01*
X42447380Y-97542857D01*
X41971190Y-97542857D01*
X41780714Y-97447619D01*
X40542619Y-98304761D02*
X40733095Y-98209523D01*
X40828333Y-98019047D01*
X40828333Y-96304761D01*
X38352142Y-98209523D02*
X38161666Y-98304761D01*
X37780714Y-98304761D01*
X37590238Y-98209523D01*
X37495000Y-98019047D01*
X37495000Y-97923809D01*
X37590238Y-97733333D01*
X37780714Y-97638095D01*
X38066428Y-97638095D01*
X38256904Y-97542857D01*
X38352142Y-97352380D01*
X38352142Y-97257142D01*
X38256904Y-97066666D01*
X38066428Y-96971428D01*
X37780714Y-96971428D01*
X37590238Y-97066666D01*
X36923571Y-96971428D02*
X36161666Y-96971428D01*
X36637857Y-96304761D02*
X36637857Y-98019047D01*
X36542619Y-98209523D01*
X36352142Y-98304761D01*
X36161666Y-98304761D01*
X35495000Y-98304761D02*
X35495000Y-96971428D01*
X35495000Y-96304761D02*
X35590238Y-96400000D01*
X35495000Y-96495238D01*
X35399761Y-96400000D01*
X35495000Y-96304761D01*
X35495000Y-96495238D01*
X34542619Y-98304761D02*
X34542619Y-96971428D01*
X34542619Y-97161904D02*
X34447380Y-97066666D01*
X34256904Y-96971428D01*
X33971190Y-96971428D01*
X33780714Y-97066666D01*
X33685476Y-97257142D01*
X33685476Y-98304761D01*
X33685476Y-97257142D02*
X33590238Y-97066666D01*
X33399761Y-96971428D01*
X33114047Y-96971428D01*
X32923571Y-97066666D01*
X32828333Y-97257142D01*
X32828333Y-98304761D01*
X25998809Y-68984761D02*
X25998809Y-66984761D01*
X25998809Y-67937142D02*
X24855952Y-67937142D01*
X24855952Y-68984761D02*
X24855952Y-66984761D01*
X23998809Y-68413333D02*
X23046428Y-68413333D01*
X24189285Y-68984761D02*
X23522619Y-66984761D01*
X22855952Y-68984761D01*
X22189285Y-68984761D02*
X22189285Y-66984761D01*
X21046428Y-68984761D01*
X21046428Y-66984761D01*
X20094047Y-68984761D02*
X20094047Y-66984761D01*
X19617857Y-66984761D01*
X19332142Y-67080000D01*
X19141666Y-67270476D01*
X19046428Y-67460952D01*
X18951190Y-67841904D01*
X18951190Y-68127619D01*
X19046428Y-68508571D01*
X19141666Y-68699047D01*
X19332142Y-68889523D01*
X19617857Y-68984761D01*
X20094047Y-68984761D01*
X17141666Y-68984761D02*
X18094047Y-68984761D01*
X18094047Y-66984761D01*
X16475000Y-67937142D02*
X15808333Y-67937142D01*
X15522619Y-68984761D02*
X16475000Y-68984761D01*
X16475000Y-66984761D01*
X15522619Y-66984761D01*
X14665476Y-68794285D02*
X14570238Y-68889523D01*
X14665476Y-68984761D01*
X14760714Y-68889523D01*
X14665476Y-68794285D01*
X14665476Y-68984761D01*
X14665476Y-67746666D02*
X14570238Y-67841904D01*
X14665476Y-67937142D01*
X14760714Y-67841904D01*
X14665476Y-67746666D01*
X14665476Y-67937142D01*
X18855952Y-72284761D02*
X19998809Y-72284761D01*
X19427380Y-72284761D02*
X19427380Y-70284761D01*
X19617857Y-70570476D01*
X19808333Y-70760952D01*
X19998809Y-70856190D01*
X17998809Y-72094285D02*
X17903571Y-72189523D01*
X17998809Y-72284761D01*
X18094047Y-72189523D01*
X17998809Y-72094285D01*
X17998809Y-72284761D01*
X15808333Y-70951428D02*
X15046428Y-70951428D01*
X15522619Y-70284761D02*
X15522619Y-71999047D01*
X15427380Y-72189523D01*
X15236904Y-72284761D01*
X15046428Y-72284761D01*
X14094047Y-72284761D02*
X14284523Y-72189523D01*
X14379761Y-72094285D01*
X14475000Y-71903809D01*
X14475000Y-71332380D01*
X14379761Y-71141904D01*
X14284523Y-71046666D01*
X14094047Y-70951428D01*
X13808333Y-70951428D01*
X13617857Y-71046666D01*
X13522619Y-71141904D01*
X13427380Y-71332380D01*
X13427380Y-71903809D01*
X13522619Y-72094285D01*
X13617857Y-72189523D01*
X13808333Y-72284761D01*
X14094047Y-72284761D01*
X11713095Y-70951428D02*
X11713095Y-72284761D01*
X12570238Y-70951428D02*
X12570238Y-71999047D01*
X12475000Y-72189523D01*
X12284523Y-72284761D01*
X11998809Y-72284761D01*
X11808333Y-72189523D01*
X11713095Y-72094285D01*
X9903571Y-72189523D02*
X10094047Y-72284761D01*
X10475000Y-72284761D01*
X10665476Y-72189523D01*
X10760714Y-72094285D01*
X10855952Y-71903809D01*
X10855952Y-71332380D01*
X10760714Y-71141904D01*
X10665476Y-71046666D01*
X10475000Y-70951428D01*
X10094047Y-70951428D01*
X9903571Y-71046666D01*
X9046428Y-72284761D02*
X9046428Y-70284761D01*
X8189285Y-72284761D02*
X8189285Y-71237142D01*
X8284523Y-71046666D01*
X8475000Y-70951428D01*
X8760714Y-70951428D01*
X8951190Y-71046666D01*
X9046428Y-71141904D01*
X19998809Y-73775238D02*
X19903571Y-73680000D01*
X19713095Y-73584761D01*
X19236904Y-73584761D01*
X19046428Y-73680000D01*
X18951190Y-73775238D01*
X18855952Y-73965714D01*
X18855952Y-74156190D01*
X18951190Y-74441904D01*
X20094047Y-75584761D01*
X18855952Y-75584761D01*
X17998809Y-75394285D02*
X17903571Y-75489523D01*
X17998809Y-75584761D01*
X18094047Y-75489523D01*
X17998809Y-75394285D01*
X17998809Y-75584761D01*
X14665476Y-75584761D02*
X14665476Y-74537142D01*
X14760714Y-74346666D01*
X14951190Y-74251428D01*
X15332142Y-74251428D01*
X15522619Y-74346666D01*
X14665476Y-75489523D02*
X14855952Y-75584761D01*
X15332142Y-75584761D01*
X15522619Y-75489523D01*
X15617857Y-75299047D01*
X15617857Y-75108571D01*
X15522619Y-74918095D01*
X15332142Y-74822857D01*
X14855952Y-74822857D01*
X14665476Y-74727619D01*
X12855952Y-75489523D02*
X13046428Y-75584761D01*
X13427380Y-75584761D01*
X13617857Y-75489523D01*
X13713095Y-75394285D01*
X13808333Y-75203809D01*
X13808333Y-74632380D01*
X13713095Y-74441904D01*
X13617857Y-74346666D01*
X13427380Y-74251428D01*
X13046428Y-74251428D01*
X12855952Y-74346666D01*
X12284523Y-74251428D02*
X11522619Y-74251428D01*
X11998809Y-73584761D02*
X11998809Y-75299047D01*
X11903571Y-75489523D01*
X11713095Y-75584761D01*
X11522619Y-75584761D01*
X9998809Y-74251428D02*
X9998809Y-75584761D01*
X10855952Y-74251428D02*
X10855952Y-75299047D01*
X10760714Y-75489523D01*
X10570238Y-75584761D01*
X10284523Y-75584761D01*
X10094047Y-75489523D01*
X9998809Y-75394285D01*
X8189285Y-75584761D02*
X8189285Y-74537142D01*
X8284523Y-74346666D01*
X8475000Y-74251428D01*
X8855952Y-74251428D01*
X9046428Y-74346666D01*
X8189285Y-75489523D02*
X8379761Y-75584761D01*
X8855952Y-75584761D01*
X9046428Y-75489523D01*
X9141666Y-75299047D01*
X9141666Y-75108571D01*
X9046428Y-74918095D01*
X8855952Y-74822857D01*
X8379761Y-74822857D01*
X8189285Y-74727619D01*
X7522619Y-74251428D02*
X6760714Y-74251428D01*
X7236904Y-73584761D02*
X7236904Y-75299047D01*
X7141666Y-75489523D01*
X6951190Y-75584761D01*
X6760714Y-75584761D01*
X5808333Y-75584761D02*
X5998809Y-75489523D01*
X6094047Y-75394285D01*
X6189285Y-75203809D01*
X6189285Y-74632380D01*
X6094047Y-74441904D01*
X5998809Y-74346666D01*
X5808333Y-74251428D01*
X5522619Y-74251428D01*
X5332142Y-74346666D01*
X5236904Y-74441904D01*
X5141666Y-74632380D01*
X5141666Y-75203809D01*
X5236904Y-75394285D01*
X5332142Y-75489523D01*
X5522619Y-75584761D01*
X5808333Y-75584761D01*
X4284523Y-75584761D02*
X4284523Y-74251428D01*
X4284523Y-74632380D02*
X4189285Y-74441904D01*
X4094047Y-74346666D01*
X3903571Y-74251428D01*
X3713095Y-74251428D01*
X1522619Y-74822857D02*
X-1190Y-74822857D01*
X760714Y-75584761D02*
X760714Y-74060952D01*
X20094047Y-86784761D02*
X18855952Y-86784761D01*
X19522619Y-87546666D01*
X19236904Y-87546666D01*
X19046428Y-87641904D01*
X18951190Y-87737142D01*
X18855952Y-87927619D01*
X18855952Y-88403809D01*
X18951190Y-88594285D01*
X19046428Y-88689523D01*
X19236904Y-88784761D01*
X19808333Y-88784761D01*
X19998809Y-88689523D01*
X20094047Y-88594285D01*
X17998809Y-88594285D02*
X17903571Y-88689523D01*
X17998809Y-88784761D01*
X18094047Y-88689523D01*
X17998809Y-88594285D01*
X17998809Y-88784761D01*
X14665476Y-88784761D02*
X14665476Y-87737142D01*
X14760714Y-87546666D01*
X14951190Y-87451428D01*
X15332142Y-87451428D01*
X15522619Y-87546666D01*
X14665476Y-88689523D02*
X14855952Y-88784761D01*
X15332142Y-88784761D01*
X15522619Y-88689523D01*
X15617857Y-88499047D01*
X15617857Y-88308571D01*
X15522619Y-88118095D01*
X15332142Y-88022857D01*
X14855952Y-88022857D01*
X14665476Y-87927619D01*
X12855952Y-88689523D02*
X13046428Y-88784761D01*
X13427380Y-88784761D01*
X13617857Y-88689523D01*
X13713095Y-88594285D01*
X13808333Y-88403809D01*
X13808333Y-87832380D01*
X13713095Y-87641904D01*
X13617857Y-87546666D01*
X13427380Y-87451428D01*
X13046428Y-87451428D01*
X12855952Y-87546666D01*
X12284523Y-87451428D02*
X11522619Y-87451428D01*
X11998809Y-86784761D02*
X11998809Y-88499047D01*
X11903571Y-88689523D01*
X11713095Y-88784761D01*
X11522619Y-88784761D01*
X9998809Y-87451428D02*
X9998809Y-88784761D01*
X10855952Y-87451428D02*
X10855952Y-88499047D01*
X10760714Y-88689523D01*
X10570238Y-88784761D01*
X10284523Y-88784761D01*
X10094047Y-88689523D01*
X9998809Y-88594285D01*
X8189285Y-88784761D02*
X8189285Y-87737142D01*
X8284523Y-87546666D01*
X8475000Y-87451428D01*
X8855952Y-87451428D01*
X9046428Y-87546666D01*
X8189285Y-88689523D02*
X8379761Y-88784761D01*
X8855952Y-88784761D01*
X9046428Y-88689523D01*
X9141666Y-88499047D01*
X9141666Y-88308571D01*
X9046428Y-88118095D01*
X8855952Y-88022857D01*
X8379761Y-88022857D01*
X8189285Y-87927619D01*
X7522619Y-87451428D02*
X6760714Y-87451428D01*
X7236904Y-86784761D02*
X7236904Y-88499047D01*
X7141666Y-88689523D01*
X6951190Y-88784761D01*
X6760714Y-88784761D01*
X5808333Y-88784761D02*
X5998809Y-88689523D01*
X6094047Y-88594285D01*
X6189285Y-88403809D01*
X6189285Y-87832380D01*
X6094047Y-87641904D01*
X5998809Y-87546666D01*
X5808333Y-87451428D01*
X5522619Y-87451428D01*
X5332142Y-87546666D01*
X5236904Y-87641904D01*
X5141666Y-87832380D01*
X5141666Y-88403809D01*
X5236904Y-88594285D01*
X5332142Y-88689523D01*
X5522619Y-88784761D01*
X5808333Y-88784761D01*
X4284523Y-88784761D02*
X4284523Y-87451428D01*
X4284523Y-87832380D02*
X4189285Y-87641904D01*
X4094047Y-87546666D01*
X3903571Y-87451428D01*
X3713095Y-87451428D01*
X1522619Y-88022857D02*
X-1190Y-88022857D01*
X19046428Y-90751428D02*
X19046428Y-92084761D01*
X19522619Y-89989523D02*
X19998809Y-91418095D01*
X18760714Y-91418095D01*
X17998809Y-91894285D02*
X17903571Y-91989523D01*
X17998809Y-92084761D01*
X18094047Y-91989523D01*
X17998809Y-91894285D01*
X17998809Y-92084761D01*
X15522619Y-92084761D02*
X15522619Y-90751428D01*
X15522619Y-90941904D02*
X15427380Y-90846666D01*
X15236904Y-90751428D01*
X14951190Y-90751428D01*
X14760714Y-90846666D01*
X14665476Y-91037142D01*
X14665476Y-92084761D01*
X14665476Y-91037142D02*
X14570238Y-90846666D01*
X14379761Y-90751428D01*
X14094047Y-90751428D01*
X13903571Y-90846666D01*
X13808333Y-91037142D01*
X13808333Y-92084761D01*
X12570238Y-92084761D02*
X12760714Y-91989523D01*
X12855952Y-91894285D01*
X12951190Y-91703809D01*
X12951190Y-91132380D01*
X12855952Y-90941904D01*
X12760714Y-90846666D01*
X12570238Y-90751428D01*
X12284523Y-90751428D01*
X12094047Y-90846666D01*
X11998809Y-90941904D01*
X11903571Y-91132380D01*
X11903571Y-91703809D01*
X11998809Y-91894285D01*
X12094047Y-91989523D01*
X12284523Y-92084761D01*
X12570238Y-92084761D01*
X11332142Y-90751428D02*
X10570238Y-90751428D01*
X11046428Y-90084761D02*
X11046428Y-91799047D01*
X10951190Y-91989523D01*
X10760714Y-92084761D01*
X10570238Y-92084761D01*
X9617857Y-92084761D02*
X9808333Y-91989523D01*
X9903571Y-91894285D01*
X9998809Y-91703809D01*
X9998809Y-91132380D01*
X9903571Y-90941904D01*
X9808333Y-90846666D01*
X9617857Y-90751428D01*
X9332142Y-90751428D01*
X9141666Y-90846666D01*
X9046428Y-90941904D01*
X8951190Y-91132380D01*
X8951190Y-91703809D01*
X9046428Y-91894285D01*
X9141666Y-91989523D01*
X9332142Y-92084761D01*
X9617857Y-92084761D01*
X8094047Y-92084761D02*
X8094047Y-90751428D01*
X8094047Y-91132380D02*
X7998809Y-90941904D01*
X7903571Y-90846666D01*
X7713095Y-90751428D01*
X7522619Y-90751428D01*
X5522619Y-90751428D02*
X4475000Y-90751428D01*
X5522619Y-92084761D01*
X4475000Y-92084761D01*
X2951190Y-91989523D02*
X3141666Y-92084761D01*
X3522619Y-92084761D01*
X3713095Y-91989523D01*
X3808333Y-91799047D01*
X3808333Y-91037142D01*
X3713095Y-90846666D01*
X3522619Y-90751428D01*
X3141666Y-90751428D01*
X2951190Y-90846666D01*
X2855952Y-91037142D01*
X2855952Y-91227619D01*
X3808333Y-91418095D01*
X1998809Y-92084761D02*
X1998809Y-90751428D01*
X1998809Y-91132380D02*
X1903571Y-90941904D01*
X1808333Y-90846666D01*
X1617857Y-90751428D01*
X1427380Y-90751428D01*
X475000Y-92084761D02*
X665476Y-91989523D01*
X760714Y-91894285D01*
X855952Y-91703809D01*
X855952Y-91132380D01*
X760714Y-90941904D01*
X665476Y-90846666D01*
X475000Y-90751428D01*
X189285Y-90751428D01*
X-1190Y-90846666D01*
X-96428Y-90941904D01*
X-191666Y-91132380D01*
X-191666Y-91703809D01*
X-96428Y-91894285D01*
X-1190Y-91989523D01*
X189285Y-92084761D01*
X475000Y-92084761D01*
X18951190Y-93384761D02*
X19903571Y-93384761D01*
X19998809Y-94337142D01*
X19903571Y-94241904D01*
X19713095Y-94146666D01*
X19236904Y-94146666D01*
X19046428Y-94241904D01*
X18951190Y-94337142D01*
X18855952Y-94527619D01*
X18855952Y-95003809D01*
X18951190Y-95194285D01*
X19046428Y-95289523D01*
X19236904Y-95384761D01*
X19713095Y-95384761D01*
X19903571Y-95289523D01*
X19998809Y-95194285D01*
X17998809Y-95194285D02*
X17903571Y-95289523D01*
X17998809Y-95384761D01*
X18094047Y-95289523D01*
X17998809Y-95194285D01*
X17998809Y-95384761D01*
X14665476Y-94051428D02*
X14665476Y-95670476D01*
X14760714Y-95860952D01*
X14855952Y-95956190D01*
X15046428Y-96051428D01*
X15332142Y-96051428D01*
X15522619Y-95956190D01*
X14665476Y-95289523D02*
X14855952Y-95384761D01*
X15236904Y-95384761D01*
X15427380Y-95289523D01*
X15522619Y-95194285D01*
X15617857Y-95003809D01*
X15617857Y-94432380D01*
X15522619Y-94241904D01*
X15427380Y-94146666D01*
X15236904Y-94051428D01*
X14855952Y-94051428D01*
X14665476Y-94146666D01*
X13713095Y-95384761D02*
X13713095Y-94051428D01*
X13713095Y-94432380D02*
X13617857Y-94241904D01*
X13522619Y-94146666D01*
X13332142Y-94051428D01*
X13141666Y-94051428D01*
X12189285Y-95384761D02*
X12379761Y-95289523D01*
X12475000Y-95194285D01*
X12570238Y-95003809D01*
X12570238Y-94432380D01*
X12475000Y-94241904D01*
X12379761Y-94146666D01*
X12189285Y-94051428D01*
X11903571Y-94051428D01*
X11713095Y-94146666D01*
X11617857Y-94241904D01*
X11522619Y-94432380D01*
X11522619Y-95003809D01*
X11617857Y-95194285D01*
X11713095Y-95289523D01*
X11903571Y-95384761D01*
X12189285Y-95384761D01*
X9808333Y-94051428D02*
X9808333Y-95384761D01*
X10665476Y-94051428D02*
X10665476Y-95099047D01*
X10570238Y-95289523D01*
X10379761Y-95384761D01*
X10094047Y-95384761D01*
X9903571Y-95289523D01*
X9808333Y-95194285D01*
X8855952Y-94051428D02*
X8855952Y-95384761D01*
X8855952Y-94241904D02*
X8760714Y-94146666D01*
X8570238Y-94051428D01*
X8284523Y-94051428D01*
X8094047Y-94146666D01*
X7998809Y-94337142D01*
X7998809Y-95384761D01*
X6189285Y-95384761D02*
X6189285Y-93384761D01*
X6189285Y-95289523D02*
X6379761Y-95384761D01*
X6760714Y-95384761D01*
X6951190Y-95289523D01*
X7046428Y-95194285D01*
X7141666Y-95003809D01*
X7141666Y-94432380D01*
X7046428Y-94241904D01*
X6951190Y-94146666D01*
X6760714Y-94051428D01*
X6379761Y-94051428D01*
X6189285Y-94146666D01*
M02*
