M48
; DRILL file {KiCad 5.1.6} date Tue Jul 14 15:11:28 2020
; FORMAT={-:-/ absolute / metric / decimal}
; #@! TF.CreationDate,2020-07-14T15:11:28-04:00
; #@! TF.GenerationSoftware,Kicad,Pcbnew,5.1.6
FMAT,2
METRIC
T1C0.400
T2C0.500
T3C0.550
T4C0.762
T5C0.800
T6C0.900
T7C1.000
T8C1.100
T9C3.200
T10C6.500
%
G90
G05
T1
X30.932Y-67.688
X58.769Y-62.481
X60.484Y-93.371
X60.638Y-63.689
X64.936Y-62.927
X67.078Y-46.373
X72.489Y-45.485
X91.006Y-78.75
X93.403Y-102.153
X93.986Y-91.224
X94.581Y-99.056
X97.155Y-73.539
X104.152Y-67.865
X123.993Y-34.641
X135.668Y-46.25
T2
X113.03Y-39.37
X113.03Y-43.18
T4
X68.148Y-65.202
X68.148Y-67.742
X68.148Y-70.282
X68.148Y-72.822
X70.688Y-65.202
X70.688Y-67.742
X70.688Y-70.282
X70.688Y-72.822
X70.739Y-60.833
X73.279Y-60.833
X75.338Y-77.902
X75.819Y-60.833
X78.359Y-60.833
X78.838Y-77.902
X80.899Y-60.833
X82.958Y-77.902
X83.439Y-60.833
X85.979Y-60.833
X86.458Y-77.902
X88.519Y-60.833
X91.059Y-60.833
T5
X120.65Y-124.54
X120.65Y-129.54
X63.5Y-116.84
X63.5Y-129.54
X66.04Y-116.84
X66.04Y-129.54
X68.58Y-116.84
X68.58Y-129.54
X71.12Y-116.84
X71.12Y-129.54
X73.66Y-116.84
X73.66Y-129.54
X76.2Y-116.84
X76.2Y-129.54
X78.74Y-116.84
X78.74Y-129.54
X81.28Y-116.84
X81.28Y-129.54
X96.52Y-92.71
X96.52Y-105.41
X99.06Y-92.71
X99.06Y-105.41
X101.6Y-92.71
X101.6Y-105.41
X104.14Y-92.71
X104.14Y-105.41
X106.68Y-92.71
X106.68Y-105.41
X109.22Y-92.71
X109.22Y-105.41
X111.76Y-92.71
X111.76Y-105.41
X114.3Y-92.71
X114.3Y-105.41
X63.5Y-92.71
X63.5Y-105.41
X66.04Y-92.71
X66.04Y-105.41
X68.58Y-92.71
X68.58Y-105.41
X71.12Y-92.71
X71.12Y-105.41
X73.66Y-92.71
X73.66Y-105.41
X76.2Y-92.71
X76.2Y-105.41
X78.74Y-92.71
X78.74Y-105.41
X81.28Y-92.71
X81.28Y-105.41
X120.65Y-100.41
X120.65Y-105.41
X88.9Y-100.41
X88.9Y-105.41
X96.52Y-116.84
X96.52Y-129.54
X99.06Y-116.84
X99.06Y-129.54
X101.6Y-116.84
X101.6Y-129.54
X104.14Y-116.84
X104.14Y-129.54
X106.68Y-116.84
X106.68Y-129.54
X109.22Y-116.84
X109.22Y-129.54
X111.76Y-116.84
X111.76Y-129.54
X114.3Y-116.84
X114.3Y-129.54
X88.9Y-124.54
X88.9Y-129.54
T6
X74.93Y-48.26
X76.2Y-45.72
X77.47Y-48.26
X78.74Y-45.72
X80.01Y-48.26
X81.28Y-45.72
X82.55Y-48.26
X83.82Y-45.72
T7
X121.92Y-88.9
X121.92Y-91.44
T8
X38.1Y-144.78
X43.18Y-144.78
X-1.27Y-81.28
X3.81Y-81.28
X8.89Y-81.28
X13.97Y-81.28
X19.05Y-81.28
X58.42Y-144.78
X63.5Y-144.78
X33.02Y-81.28
X38.1Y-81.28
X43.18Y-81.28
X48.26Y-81.28
X53.34Y-81.28
X58.42Y-81.28
X34.29Y-105.41
X39.37Y-105.41
X44.45Y-105.41
X49.53Y-105.41
X123.19Y-82.55
X126.782Y-78.958
X130.374Y-75.366
X133.966Y-71.774
X137.558Y-68.182
X0.0Y-105.41
X5.08Y-105.41
X10.16Y-105.41
X15.24Y-105.41
X0.0Y-144.78
X5.08Y-144.78
X19.05Y-144.78
X24.13Y-144.78
X34.29Y-38.1
X39.37Y-38.1
X33.02Y-59.69
X38.1Y-59.69
X43.18Y-59.69
X48.26Y-59.69
X53.34Y-59.69
X58.42Y-59.69
X105.41Y-33.02
X105.41Y-35.56
X105.41Y-38.1
X105.41Y-40.64
X105.41Y-43.18
X105.41Y-45.72
X105.41Y-48.26
X105.41Y-50.8
X105.41Y-53.34
X105.41Y-55.88
X105.41Y-58.42
X105.41Y-60.96
X105.41Y-63.5
X105.41Y-66.04
X107.95Y-66.04
X110.49Y-66.04
X113.03Y-66.04
X115.57Y-66.04
X118.11Y-35.56
X118.11Y-40.64
X118.11Y-43.18
X118.11Y-45.72
X118.11Y-66.04
X120.65Y-33.02
X120.65Y-35.56
X120.65Y-38.1
X120.65Y-40.64
X120.65Y-43.18
X120.65Y-45.72
X120.65Y-48.26
X120.65Y-50.8
X120.65Y-53.34
X120.65Y-55.88
X120.65Y-58.42
X120.65Y-60.96
X120.65Y-63.5
X120.65Y-66.04
X130.81Y-92.71
X135.89Y-92.71
X0.0Y-38.1
X5.08Y-38.1
X-1.27Y-59.69
X3.81Y-59.69
X8.89Y-59.69
X13.97Y-59.69
X19.05Y-59.69
X0.0Y-127.0
X5.08Y-127.0
X10.16Y-127.0
X15.24Y-127.0
X15.24Y-38.1
X20.32Y-38.1
X34.29Y-127.0
X39.37Y-127.0
X44.45Y-127.0
X49.53Y-127.0
T9
X73.66Y-36.32
X86.55Y-36.32
T10
X85.09Y-143.51
X55.88Y-38.1
T3
G00X137.16Y-118.345
M15
G01X137.16Y-116.865
M16
G05
G00X137.16Y-123.17
M15
G01X137.16Y-121.69
M16
G05
G00X137.16Y-127.995
M15
G01X137.16Y-126.515
M16
G05
G00X137.16Y-48.495
M15
G01X137.16Y-47.015
M16
G05
G00X137.16Y-53.32
M15
G01X137.16Y-51.84
M16
G05
G00X137.16Y-58.145
M15
G01X137.16Y-56.665
M16
G05
G00X106.955Y-143.51
M15
G01X108.435Y-143.51
M16
G05
G00X111.78Y-143.51
M15
G01X113.26Y-143.51
M16
G05
G00X116.605Y-143.51
M15
G01X118.085Y-143.51
M16
G05
T7
G00X134.62Y-37.83
M15
G01X134.62Y-35.83
M16
G05
G00X138.62Y-32.13
M15
G01X136.62Y-32.13
M16
G05
G00X140.62Y-37.83
M15
G01X140.62Y-35.83
M16
G05
G00X128.54Y-140.97
M15
G01X130.54Y-140.97
M16
G05
G00X128.54Y-146.97
M15
G01X130.54Y-146.97
M16
G05
G00X134.24Y-144.97
M15
G01X134.24Y-142.97
M16
G05
G00X133.35Y-106.41
M15
G01X133.35Y-104.41
M16
G05
G00X137.35Y-100.71
M15
G01X135.35Y-100.71
M16
G05
G00X139.35Y-106.41
M15
G01X139.35Y-104.41
M16
G05
T0
M30
